<?xml version="1.0" standalone="no"?>
<!DOCTYPE svg PUBLIC "-//W3C//DTD SVG 20010904//EN"
 "http://www.w3.org/TR/2001/REC-SVG-20010904/DTD/svg10.dtd">
<svg version="1.0" xmlns="http://www.w3.org/2000/svg"
 width="5022.000000pt" height="2423.000000pt" viewBox="0 0 5022.000000 2423.000000"
 preserveAspectRatio="xMidYMid meet">

<g transform="translate(0.000000,2423.000000) scale(0.100000,-0.100000)"
fill="#000000" stroke="none">
<path d="M38995 21940 c-952 -42 -1805 -220 -2625 -547 -1555 -621 -2757
-1726 -3455 -3176 -333 -691 -511 -1368 -587 -2227 -17 -191 -17 -947 0 -1130
58 -623 151 -1093 319 -1605 99 -300 122 -343 208 -385 60 -29 167 -28 226 3
89 47 143 164 120 260 -5 23 -41 134 -80 247 -351 1028 -424 2248 -200 3345
243 1192 916 2329 1859 3142 1018 879 2336 1420 3790 1557 382 37 908 47 1260
26 1634 -99 3061 -647 4150 -1595 795 -691 1267 -1447 1460 -2339 42 -193 54
-302 54 -486 -1 -356 -63 -587 -319 -1185 -204 -476 -279 -717 -315 -1015 -13
-110 -13 -404 1 -528 74 -686 468 -1516 1196 -2521 134 -184 136 -189 97 -238
-106 -132 -364 -263 -688 -350 -325 -86 -431 -130 -517 -210 -60 -56 -88 -112
-96 -195 -7 -80 7 -162 57 -343 62 -221 156 -741 167 -918 l6 -107 -33 0 c-18
0 -96 12 -174 27 -188 36 -380 39 -441 7 -73 -38 -122 -184 -101 -298 13 -71
82 -127 198 -160 65 -19 111 -57 153 -130 43 -73 58 -140 41 -180 -8 -17 -105
-123 -217 -236 -354 -356 -506 -560 -589 -788 -49 -134 -61 -210 -70 -444 -22
-515 -94 -821 -246 -1049 -87 -129 -196 -207 -349 -250 -65 -19 -105 -23 -215
-22 -154 0 -268 17 -461 68 -74 20 -174 44 -224 55 -545 118 -956 -34 -1297
-481 -31 -41 -138 -202 -239 -359 -100 -157 -237 -370 -304 -475 -67 -104
-287 -449 -489 -765 -202 -316 -373 -581 -380 -588 -9 -9 -412 -12 -1969 -10
l-1958 3 118 180 c65 99 173 263 240 365 67 102 262 399 433 660 171 261 451
687 621 945 170 259 351 540 402 625 118 195 648 1072 1012 1675 153 253 362
600 465 770 411 681 518 858 785 1300 618 1022 559 918 563 995 5 88 -26 164
-86 207 -21 15 -291 174 -600 353 l-561 325 204 400 203 400 149 7 c818 39
1573 365 2139 924 559 552 891 1252 965 2038 17 185 7 573 -21 751 -89 586
-310 1102 -668 1559 -107 136 -351 383 -492 498 -457 371 -990 606 -1590 700
-129 20 -181 22 -470 22 -352 0 -444 -9 -715 -69 -1200 -269 -2138 -1185
-2439 -2382 -67 -268 -96 -506 -96 -788 0 -605 157 -1173 465 -1687 l76 -126
-188 -346 c-103 -190 -192 -346 -196 -346 -7 0 -325 183 -932 536 -179 104
-232 122 -309 104 -61 -13 -94 -31 -127 -67 -15 -15 -183 -309 -374 -653 -191
-344 -502 -902 -690 -1240 -188 -338 -499 -896 -690 -1240 -191 -344 -379
-681 -418 -750 -69 -120 -71 -128 -75 -202 -5 -87 15 -143 65 -189 16 -14 370
-223 788 -464 874 -504 2357 -1367 2373 -1381 4 -2 -41 -77 -498 -829 -488
-802 -1006 -1656 -1157 -1905 -209 -344 -234 -381 -335 -481 -176 -177 -402
-290 -667 -334 -149 -25 -405 -17 -554 19 -131 31 -285 91 -392 154 -547 320
-654 886 -288 1520 31 53 229 385 441 737 1056 1756 951 1586 975 1573 12 -6
178 -102 368 -213 190 -111 362 -208 383 -215 21 -7 64 -10 96 -8 152 11 253
161 210 313 -24 87 -60 113 -550 398 -250 145 -473 273 -495 285 -92 46 -206
34 -278 -30 -24 -22 -202 -309 -538 -868 -276 -459 -630 -1048 -786 -1308
-157 -261 -310 -525 -339 -588 -175 -370 -229 -724 -163 -1056 51 -256 169
-480 360 -682 278 -294 680 -479 1138 -526 433 -43 885 69 1218 303 110 77
311 278 379 377 45 66 202 323 832 1360 85 140 230 379 322 530 504 828 849
1400 866 1430 24 46 25 162 1 206 -9 17 -39 58 -66 91 -55 66 -34 52 -656 416
-481 281 -1113 649 -1815 1054 -366 212 -666 386 -668 388 -2 1 216 396 483
876 268 481 705 1267 972 1747 267 479 489 872 494 872 5 0 190 -105 411 -234
222 -128 489 -283 593 -343 105 -61 372 -216 595 -345 1151 -668 2324 -1348
2555 -1481 143 -82 265 -155 272 -161 9 -8 -9 -45 -76 -156 -49 -80 -299 -494
-556 -920 -257 -426 -533 -882 -611 -1012 -79 -131 -209 -345 -287 -475 -408
-675 -806 -1334 -935 -1548 -218 -361 -273 -450 -431 -690 -79 -121 -181 -276
-226 -345 -45 -69 -144 -219 -220 -335 -76 -115 -172 -262 -213 -325 -42 -63
-321 -488 -620 -945 -324 -492 -551 -848 -559 -874 -7 -24 -13 -59 -13 -77 0
-54 38 -140 76 -173 75 -66 -125 -61 2425 -61 2314 0 2319 0 2363 20 61 29 78
51 218 270 225 353 1013 1584 1202 1878 210 326 319 436 503 510 64 25 76 27
228 26 147 -1 169 -3 275 -32 403 -111 691 -145 936 -111 294 41 554 192 726
422 219 295 329 699 359 1317 9 194 14 235 36 300 55 166 166 314 454 605 227
230 260 266 312 343 93 140 112 358 47 547 l-18 53 68 17 c156 38 258 113 301
221 22 55 24 73 23 244 0 204 -7 260 -80 655 -46 241 -80 393 -108 473 -12 33
-13 44 -3 47 7 2 68 18 137 35 445 110 782 271 970 461 135 138 189 258 190
419 0 163 -36 258 -170 440 -647 881 -1012 1604 -1115 2205 -56 332 -39 615
60 938 44 146 81 240 210 542 261 607 335 903 335 1329 0 326 -62 661 -195
1061 -253 763 -672 1385 -1360 2021 -1081 999 -2580 1634 -4230 1793 -328 32
-871 46 -1200 31z m939 -3400 c1106 -168 2000 -975 2276 -2056 66 -257 84
-401 84 -684 0 -278 -17 -422 -79 -667 -35 -139 -98 -330 -114 -346 -5 -5 -55
22 -112 59 -259 168 -608 373 -1014 597 -790 435 -2154 1115 -3387 1690 -203
94 -368 175 -368 180 0 14 78 123 160 225 276 344 648 628 1045 799 259 112
569 193 850 222 149 16 500 6 659 -19z m-2586 -1834 c1798 -840 3278 -1597
4102 -2099 168 -103 420 -268 420 -276 0 -11 -115 -177 -162 -235 -23 -28 -43
-52 -44 -54 -1 -1 -102 55 -225 126 -1263 729 -2889 1551 -4357 2202 l-234
104 7 32 c7 37 84 269 108 327 14 31 20 37 37 32 11 -3 167 -75 348 -159z
m-382 -820 c735 -325 1866 -872 2637 -1272 650 -339 1700 -918 1694 -936 -4
-13 -136 -113 -245 -185 -578 -382 -1300 -537 -1972 -422 -883 151 -1634 708
-2025 1504 -165 336 -253 651 -285 1025 -15 172 -12 370 5 370 1 0 88 -38 191
-84z m459 -2566 c415 -348 924 -597 1430 -700 61 -12 116 -24 123 -26 9 -3
-34 -97 -139 -303 -84 -165 -155 -298 -158 -296 -8 4 -724 419 -1308 758 -277
160 -503 294 -503 299 0 4 63 124 141 266 l141 259 91 -91 c51 -50 133 -125
182 -166z"/>
<path d="M21550 14765 l0 -1645 310 0 310 0 0 1645 0 1645 -310 0 -310 0 0
-1645z"/>
<path d="M3570 15970 l0 -260 470 0 470 0 0 -1295 0 -1295 320 0 320 0 0 1295
0 1295 475 0 475 0 0 260 0 260 -1265 0 -1265 0 0 -260z"/>
<path d="M6470 14676 l0 -1556 320 0 320 0 0 570 0 570 258 -2 257 -3 290
-567 290 -568 343 0 c311 0 342 2 342 16 0 9 -151 302 -336 651 -185 349 -334
636 -332 638 1 1 32 17 68 35 165 82 312 224 385 373 76 154 89 219 89 452 0
176 -3 209 -22 279 -98 350 -364 562 -807 643 -76 14 -195 17 -777 20 l-688 4
0 -1555z m1366 1010 c171 -56 270 -182 294 -373 27 -210 -61 -396 -225 -477
-100 -49 -161 -56 -492 -56 l-303 0 0 466 0 465 338 -4 c282 -3 345 -6 388
-21z"/>
<path d="M9270 14675 l0 -1555 1040 0 1040 0 0 260 0 260 -720 0 -720 0 0 415
0 415 615 0 615 0 0 250 0 250 -615 0 -615 0 0 370 0 370 720 0 720 0 0 260 0
260 -1040 0 -1040 0 0 -1555z"/>
<path d="M11730 14675 l0 -1555 320 0 320 0 2 1020 3 1020 621 -1017 621
-1018 322 -3 321 -2 0 1555 0 1555 -320 0 -320 0 -2 -1022 -3 -1022 -623 1022
-624 1022 -319 0 -319 0 0 -1555z"/>
<path d="M14830 14676 l0 -1556 513 0 c281 0 554 5 605 10 612 65 1059 449
1206 1035 42 168 51 262 50 525 -2 286 -18 406 -85 604 -74 222 -185 401 -343
554 -193 187 -418 300 -711 359 -66 13 -183 16 -657 20 l-578 5 0 -1556z
m1185 1010 c282 -77 458 -292 521 -634 22 -117 30 -476 15 -624 -36 -355 -173
-594 -404 -707 -136 -67 -172 -74 -439 -78 l-238 -5 0 1037 0 1037 243 -5
c183 -3 257 -8 302 -21z"/>
<path d="M18760 14675 l0 -1555 633 0 c793 0 925 11 1141 97 347 137 514 378
533 763 17 361 -149 625 -456 726 l-53 17 73 38 c177 92 295 239 346 429 25
90 24 317 -1 415 -95 367 -398 569 -921 614 -66 6 -384 11 -707 11 l-588 0 0
-1555z m1325 1013 c88 -27 123 -46 174 -93 74 -69 95 -129 95 -275 1 -111 0
-118 -32 -182 -36 -74 -79 -115 -157 -152 -97 -46 -180 -56 -485 -56 l-280 0
0 391 0 391 318 -5 c244 -3 328 -7 367 -19z m25 -1218 c135 -26 245 -112 291
-228 20 -48 23 -76 24 -182 0 -117 -2 -129 -28 -186 -34 -72 -102 -143 -173
-178 -100 -50 -152 -56 -501 -56 l-323 0 0 420 0 420 329 0 c180 0 352 -4 381
-10z"/>
<path d="M22720 14675 l0 -1555 1040 0 1040 0 0 260 0 260 -720 0 -720 0 0
415 0 415 615 0 615 0 0 250 0 250 -615 0 -615 0 0 370 0 370 720 0 720 0 0
260 0 260 -1040 0 -1040 0 0 -1555z"/>
<path d="M25190 14675 l0 -1555 320 0 320 0 2 1020 3 1020 621 -1017 621
-1018 322 -3 321 -2 0 1555 0 1555 -320 0 -320 0 -2 -1022 -3 -1022 -623 1022
-624 1022 -319 0 -319 0 0 -1555z"/>
<path d="M28280 14676 l0 -1556 513 0 c281 0 554 5 605 10 612 65 1059 449
1206 1035 42 168 51 262 50 525 -2 286 -18 406 -85 604 -74 222 -185 401 -343
554 -193 187 -418 300 -711 359 -66 13 -183 16 -657 20 l-578 5 0 -1556z
m1185 1010 c282 -77 458 -292 521 -634 22 -117 30 -476 15 -624 -36 -355 -173
-594 -404 -707 -136 -67 -172 -74 -439 -78 l-238 -5 0 1037 0 1037 243 -5
c183 -3 257 -8 302 -21z"/>
<path d="M10800 11020 c-297 -37 -529 -145 -723 -337 -201 -199 -332 -484
-382 -833 -22 -150 -30 -505 -16 -680 6 -80 23 -199 36 -266 117 -579 481
-950 1030 -1050 130 -24 440 -24 597 -1 346 52 616 169 801 345 l67 65 0 624
0 623 -610 0 -610 0 0 -235 0 -235 290 0 290 0 0 -269 0 -269 -32 -28 c-47
-39 -141 -81 -228 -101 -55 -13 -118 -18 -240 -18 -145 0 -174 3 -240 23 -106
33 -182 77 -249 141 -146 140 -224 341 -252 642 -15 163 -6 562 16 689 74 441
292 660 654 660 329 -1 518 -156 586 -482 l5 -28 310 0 c189 0 310 4 310 9 0
6 -9 58 -20 116 -97 500 -405 797 -915 880 -113 19 -376 27 -475 15z"/>
<path d="M23420 11024 c-492 -44 -844 -269 -967 -619 -26 -75 -28 -90 -28
-245 0 -155 2 -170 28 -245 39 -111 97 -205 183 -294 169 -177 372 -287 816
-440 498 -171 608 -260 608 -490 0 -100 -20 -158 -77 -221 -83 -92 -221 -140
-409 -140 -275 0 -466 86 -553 250 -33 62 -61 167 -61 233 l0 37 -320 0 -320
0 0 -44 c0 -24 7 -82 15 -129 53 -302 235 -536 533 -686 292 -147 669 -194
1036 -131 394 68 669 278 766 585 32 99 39 318 15 436 -55 276 -239 486 -573
653 -128 64 -214 98 -457 178 -325 107 -479 189 -549 292 -45 65 -61 135 -47
210 38 206 232 317 530 303 288 -12 442 -142 476 -399 l6 -48 316 0 316 0 -6
93 c-27 424 -366 755 -862 842 -89 16 -328 27 -415 19z"/>
<path d="M12730 9425 l0 -1555 1040 0 1040 0 0 260 0 260 -720 0 -720 0 0 415
0 415 615 0 615 0 0 250 0 250 -615 0 -615 0 0 370 0 370 720 0 720 0 0 260 0
260 -1040 0 -1040 0 0 -1555z"/>
<path d="M15190 9425 l0 -1555 320 0 320 0 2 1020 3 1020 621 -1017 621 -1018
322 -3 321 -2 0 1555 0 1555 -320 0 -320 0 -2 -1022 -3 -1022 -623 1022 -624
1022 -319 0 -319 0 0 -1555z"/>
<path d="M18330 9425 l0 -1555 320 0 320 0 0 1555 0 1555 -320 0 -320 0 0
-1555z"/>
<path d="M19530 9912 c0 -678 4 -1098 10 -1152 61 -491 379 -814 895 -906 134
-24 430 -24 567 -1 262 45 472 150 629 314 124 130 193 257 248 453 l26 95 3
1133 3 1132 -321 0 -320 0 0 -1082 c0 -1185 1 -1156 -59 -1285 -82 -174 -247
-262 -492 -263 -230 0 -404 91 -484 253 -66 135 -65 111 -65 1303 l0 1074
-320 0 -320 0 0 -1068z"/>
<path d="M31352 3968 c-23 -11 -53 -33 -66 -48 -36 -43 -327 -547 -354 -613
-41 -101 -54 -190 -49 -317 9 -201 76 -359 212 -496 159 -160 346 -233 575
-222 224 11 430 119 569 299 44 57 291 492 302 531 21 81 -7 183 -68 240 -87
83 -264 78 -345 -9 -13 -16 -85 -130 -157 -255 -76 -129 -147 -239 -165 -255
-153 -129 -375 -61 -432 133 -18 63 -12 118 19 179 11 22 82 146 158 276 76
131 143 258 150 283 29 116 -31 237 -138 283 -50 20 -160 16 -211 -9z"/>
</g>
</svg>
